<svg width="18" height="15" viewBox="0 0 18 15" fill="none" xmlns="http://www.w3.org/2000/svg">
<path id="Vector" fill-rule="evenodd" clip-rule="evenodd" d="M15.7406 0.129006C15.9403 0.00898894 16.1788 -0.0291901 16.4061 0.0224797C16.6334 0.0741494 16.8318 0.211651 16.9597 0.406138L17.8525 1.76481C17.9691 1.94238 18.019 2.15538 17.9935 2.36615C17.9679 2.57691 17.8684 2.77186 17.7127 2.91653L17.71 2.92013L17.646 2.97951L17.4431 3.17297C16.3204 4.25954 15.2317 5.38061 14.1787 6.53455C12.1975 8.70842 9.84485 11.5535 8.26136 14.3141C7.81949 15.0843 6.74009 15.2498 6.09984 14.5849L0.251918 8.52217C0.168113 8.43525 0.102676 8.33241 0.0594971 8.21976C0.016318 8.1071 -0.00372205 7.98694 0.000568208 7.8664C0.00485846 7.74587 0.0333915 7.62742 0.0844712 7.51811C0.135551 7.40879 0.208135 7.31085 0.297908 7.23008L2.06536 5.63927C2.22068 5.49954 2.41984 5.41802 2.62876 5.40867C2.83767 5.39931 3.04335 5.4627 3.21059 5.58798L6.78462 10.5556C11.4449 5.96937 13.5692 2.36615 15.7406 0.129006Z" fill="white"/>
</svg>
