<svg width="15" height="12" viewBox="0 0 15 12" fill="none" xmlns="http://www.w3.org/2000/svg">
<g id="Enter icon">
<path id="Vector" fill-rule="evenodd" clip-rule="evenodd" d="M0 7.07312C0 6.86469 0.0828001 6.66479 0.230185 6.5174C0.377571 6.37002 0.577468 6.28722 0.785902 6.28722H10.2167C10.842 6.28722 11.4417 6.03882 11.8839 5.59666C12.326 5.15451 12.5744 4.55481 12.5744 3.92951V0.785902C12.5744 0.577468 12.6572 0.377571 12.8046 0.230186C12.952 0.0828003 13.1519 0 13.3603 0C13.5688 0 13.7687 0.0828003 13.9161 0.230186C14.0634 0.377571 14.1462 0.577468 14.1462 0.785902V3.92951C14.1462 4.97168 13.7322 5.97117 12.9953 6.7081C12.2584 7.44502 11.2589 7.85902 10.2167 7.85902H0.785902C0.577468 7.85902 0.377571 7.77622 0.230185 7.62884C0.0828001 7.48145 0 7.28155 0 7.07312Z" fill="#F7F7F7"/>
<path id="Vector_2" fill-rule="evenodd" clip-rule="evenodd" d="M0.230101 7.62783C0.0827675 7.48045 0 7.28059 0 7.0722C0 6.8638 0.0827675 6.66394 0.230101 6.51656L3.37371 3.37296C3.52193 3.2298 3.72045 3.15058 3.92651 3.15237C4.13258 3.15416 4.32969 3.23682 4.4754 3.38253C4.62112 3.52824 4.70377 3.72536 4.70556 3.93142C4.70735 4.13748 4.62813 4.336 4.48498 4.48422L1.897 7.0722L4.48498 9.66017C4.56004 9.73267 4.61991 9.81939 4.6611 9.91527C4.70229 10.0112 4.72397 10.1143 4.72487 10.2186C4.72578 10.323 4.70589 10.4265 4.66638 10.5231C4.62686 10.6196 4.56851 10.7074 4.49472 10.7812C4.42093 10.855 4.33318 10.9133 4.23659 10.9528C4.14001 10.9924 4.03652 11.0122 3.93217 11.0113C3.82782 11.0104 3.72469 10.9887 3.62881 10.9476C3.53293 10.9064 3.44621 10.8465 3.37371 10.7714L0.230101 7.62783Z" fill="#F7F7F7"/>
</g>
</svg>
