<svg width="35" height="34" viewBox="0 0 35 34" fill="none" xmlns="http://www.w3.org/2000/svg">
<path id="Vector" d="M1.9 9.367C3.38573 6.55051 5.66495 4.18287 8.48292 2.5287C11.3009 0.874526 14.5465 -0.000992066 17.8571 8.43593e-07C22.6696 8.43593e-07 26.7125 1.6847 29.8036 4.4285L24.6839 9.3041C22.8321 7.6194 20.4786 6.7609 17.8571 6.7609C13.2054 6.7609 9.26786 9.7529 7.86607 13.77C7.50893 14.79 7.30536 15.878 7.30536 17C7.30536 18.122 7.50893 19.21 7.86607 20.23C9.26964 24.2488 13.2054 27.2391 17.8571 27.2391C20.2589 27.2391 22.3036 26.6356 23.9036 25.6156C24.8311 25.0342 25.6252 24.2798 26.2379 23.3979C26.8505 22.5161 27.2689 21.5252 27.4679 20.485H17.8571V13.9094H34.675C34.8857 15.0212 35 16.1806 35 17.3859C35 22.5641 33.0536 26.9229 29.675 29.8809C26.7214 32.4785 22.6786 34 17.8571 34C15.5118 34.0009 13.1894 33.5618 11.0224 32.7078C8.85545 31.8538 6.88652 30.6016 5.22814 29.0228C3.56977 27.444 2.25446 25.5696 1.35738 23.5067C0.460311 21.4437 -0.000937252 19.2327 1.42985e-06 17C1.42985e-06 14.2562 0.689287 11.662 1.9 9.367Z" fill="#ECECEC"/>
</svg>
