<svg width="249" height="52" viewBox="0 0 249 52" fill="none" xmlns="http://www.w3.org/2000/svg">
<g id="logo">
<g id="Group 1343">
<g id="Group 1328">
<path id="Vector" d="M28.3905 0.411572C30.9524 1.64864 33.2372 3.28673 35.0814 5.20577C36.9907 7.18824 38.4494 9.48565 39.3707 11.9326C40.327 14.477 40.7125 17.2003 40.4872 19.8874C40.2586 22.6923 39.3657 25.4474 37.917 27.9442C38.7865 25.1778 39.0252 22.3774 38.678 19.7583C38.3493 17.2343 37.4881 14.8735 36.2196 12.8139C34.9896 10.8201 33.3807 9.10048 31.5365 7.7456C29.7357 6.41564 27.6979 5.4278 25.5766 4.78888C23.8976 4.2859 23.0665 2.82226 23.699 1.54668C24.3182 0.298287 26.109 -0.311183 27.7279 0.157815C27.9315 0.216723 28.1168 0.286959 28.2954 0.373055L28.3855 0.416103L28.3905 0.411572Z" fill="#F7F7F7"/>
<path id="Vector_2" d="M1.87271 13.5109C4.7083 11.7935 7.76753 10.5383 10.8268 9.81552C13.8426 9.09729 16.9035 8.87526 19.8075 9.11315C22.7199 9.35558 25.5254 10.0693 28.0439 11.1817C30.6108 12.31 32.9089 13.8734 34.8082 15.7312C32.5234 14.2064 29.9999 13.0985 27.4197 12.4573C24.8612 11.8139 22.2175 11.6145 19.664 11.8297C17.0938 12.0518 14.587 12.6884 12.3105 13.683C9.9906 14.6935 7.88769 16.0824 6.10857 17.7364C4.65489 19.0867 2.31666 19.3201 0.941424 18.2325C-0.413783 17.1677 -0.283603 15.26 1.18843 13.9844C1.37035 13.828 1.56061 13.6876 1.75922 13.5675L1.8627 13.5018L1.87271 13.5109Z" fill="#F7F7F7"/>
<path id="Vector_3" d="M51.9867 20.5095C51.753 23.4662 50.8101 26.3617 49.2128 28.9401C47.5589 31.6249 45.2307 33.9382 42.4485 35.7054C39.5829 37.5157 36.285 38.7097 32.8569 39.2082C29.3988 39.7157 25.8839 39.4937 22.6211 38.6463C25.9924 38.8185 29.312 38.3178 32.2895 37.2302C35.2235 36.1654 37.7854 34.5545 39.8082 32.6037C41.7692 30.7005 43.1979 28.496 44.0324 26.2054C44.8468 23.9896 45.1022 21.7035 44.8769 19.5148C44.6999 17.8178 46.1102 16.5377 48.0229 16.6125C49.9322 16.6873 51.6929 18.0875 51.965 19.7845C52 19.9952 52.0084 20.2059 51.9917 20.4052L51.9833 20.5072H51.9867V20.5095Z" fill="#F7F7F7"/>
<path id="Vector_4" d="M40.8477 51.8979C36.6702 52.2491 32.4294 51.6872 28.5307 50.2938C24.687 48.9253 21.2589 46.7911 18.4934 44.1651C15.8181 41.614 13.802 38.6414 12.5419 35.5306C11.3302 32.5467 10.8279 29.4631 10.9614 26.5381C11.4721 29.3702 12.632 32.0981 14.341 34.5042C16.1068 36.9852 18.435 39.0923 21.1021 40.6533C23.8242 42.2484 26.85 43.2521 29.8925 43.6146C32.9434 43.9816 35.9559 43.6961 38.6964 42.8578C40.861 42.1985 43.3144 43.533 44.2274 45.8939C45.167 48.3317 44.1272 50.9622 41.8557 51.7076C41.5753 51.7982 41.2849 51.8594 40.9945 51.8866L40.8427 51.8979H40.8477Z" fill="#F7F7F7"/>
<path id="Vector_5" d="M2.06532 46.0512C1.15239 42.127 1.07061 38.1507 1.73653 34.4486C2.36908 30.9255 3.66754 27.6515 5.45501 24.8126C7.16904 22.0938 9.33704 19.7602 11.7704 17.9272C14.1287 16.1441 16.7556 14.8142 19.4477 13.9668C16.9859 15.2469 14.7912 16.9439 13.0205 18.9332C11.1846 20.9859 9.78266 23.3581 8.89643 25.8775C7.9785 28.4989 7.61466 31.2698 7.82662 33.9773C8.04359 36.7936 8.87807 39.5215 10.2333 41.9752C11.3448 43.9917 10.5404 46.817 8.36403 48.2648C6.14429 49.7397 3.43889 49.1733 2.39077 47.0164C2.26059 46.7513 2.16546 46.4817 2.10037 46.2007L2.06532 46.0557V46.0512Z" fill="#F7F7F7"/>
</g>
<path id="Vector_6" d="M29.2492 29.3918C26.8522 31.9405 22.8264 31.9405 20.3949 29.3918C18.0344 26.9138 18.1764 23.0458 20.5879 20.7637C22.9247 18.5441 26.6284 18.5577 28.9798 20.7909C31.3967 23.0784 31.5715 26.9274 29.2492 29.3918Z" fill="#F7F7F7"/>
</g>
<g id="SPACE CENTER">
<path d="M71.6645 35.2646C70.1356 35.2646 68.8314 34.9839 67.7522 34.4225C66.6729 33.8436 65.7555 33.0541 65 32.0541L66.6729 30.6857C67.3384 31.5454 68.0759 32.2032 68.8854 32.6594C69.6948 33.098 70.6482 33.3173 71.7455 33.3173C73.0946 33.3173 74.1199 33.0015 74.8214 32.3699C75.5409 31.7383 75.9007 30.8962 75.9007 29.8436C75.9007 28.9664 75.6309 28.291 75.0912 27.8173C74.5516 27.3436 73.6612 26.9664 72.42 26.6857L70.8821 26.3436C69.1552 25.9576 67.8331 25.3787 66.9157 24.6068C66.0163 23.8173 65.5666 22.712 65.5666 21.291C65.5666 20.4839 65.7195 19.7646 66.0253 19.1331C66.3311 18.5015 66.7538 17.9752 67.2935 17.5541C67.8511 17.1331 68.5076 16.8173 69.2631 16.6068C70.0366 16.3787 70.8821 16.2646 71.7994 16.2646C73.2205 16.2646 74.4347 16.519 75.442 17.0278C76.4673 17.5366 77.3307 18.2822 78.0323 19.2646L76.3324 20.4752C75.8107 19.7734 75.1812 19.2208 74.4437 18.8173C73.7062 18.4138 72.7888 18.212 71.6915 18.212C70.4863 18.212 69.533 18.4664 68.8314 18.9752C68.1479 19.4664 67.8061 20.212 67.8061 21.212C67.8061 22.0892 68.0939 22.7559 68.6695 23.212C69.2631 23.6506 70.1535 24.0015 71.3407 24.2646L72.8787 24.6068C74.7315 25.0103 76.0716 25.6243 76.899 26.4489C77.7265 27.2734 78.1402 28.3699 78.1402 29.7383C78.1402 30.5804 77.9873 31.3436 77.6815 32.0278C77.3937 32.712 76.971 33.291 76.4133 33.7647C75.8557 34.2383 75.1722 34.6068 74.3627 34.8699C73.5712 35.1331 72.6718 35.2646 71.6645 35.2646Z" fill="#F7F7F7"/>
<path d="M82.054 34.9489V16.5804H89.555C91.2459 16.5804 92.541 17.0541 93.4404 18.0015C94.3578 18.9313 94.8165 20.212 94.8165 21.8436C94.8165 23.4752 94.3578 24.7646 93.4404 25.712C92.541 26.6418 91.2459 27.1068 89.555 27.1068H84.3205V34.9489H82.054ZM84.3205 25.1594H89.555C90.4544 25.1594 91.1469 24.9313 91.6326 24.4752C92.1363 24.019 92.3881 23.3699 92.3881 22.5278V21.1594C92.3881 20.3173 92.1363 19.6682 91.6326 19.212C91.1469 18.7559 90.4544 18.5278 89.555 18.5278H84.3205V25.1594Z" fill="#F7F7F7"/>
<path d="M108.996 34.9489L107.107 29.5278H99.4984L97.6097 34.9489H95.3163L101.9 16.5804H104.787L111.37 34.9489H108.996ZM103.357 18.6331H103.222L100.038 27.5804H106.541L103.357 18.6331Z" fill="#F7F7F7"/>
<path d="M120.733 35.2646C118.34 35.2646 116.478 34.4752 115.147 32.8962C113.816 31.2997 113.151 28.9576 113.151 25.8699C113.151 22.7822 113.816 20.4138 115.147 18.7646C116.478 17.098 118.34 16.2646 120.733 16.2646C122.315 16.2646 123.638 16.6155 124.699 17.3173C125.778 18.019 126.615 19.0103 127.208 20.291L125.373 21.3699C124.996 20.4225 124.42 19.6682 123.647 19.1068C122.873 18.5278 121.902 18.2383 120.733 18.2383C119.923 18.2383 119.195 18.3875 118.547 18.6857C117.917 18.9839 117.378 19.4138 116.928 19.9752C116.496 20.519 116.164 21.1769 115.93 21.9489C115.696 22.7032 115.579 23.5541 115.579 24.5015V27.2383C115.579 29.1331 116.029 30.6155 116.928 31.6857C117.828 32.7559 119.096 33.291 120.733 33.291C121.938 33.291 122.945 32.9927 123.755 32.3962C124.564 31.7822 125.158 30.9752 125.535 29.9752L127.343 31.0804C126.75 32.3787 125.895 33.405 124.78 34.1594C123.665 34.8962 122.315 35.2646 120.733 35.2646Z" fill="#F7F7F7"/>
<path d="M130.853 34.9489V16.5804H142.348V18.5278H133.12V24.6857H141.808V26.6331H133.12V33.0015H142.348V34.9489H130.853Z" fill="#F7F7F7"/>
<path d="M159.598 35.2646C157.206 35.2646 155.344 34.4752 154.013 32.8962C152.682 31.2997 152.016 28.9576 152.016 25.8699C152.016 22.7822 152.682 20.4138 154.013 18.7646C155.344 17.098 157.206 16.2646 159.598 16.2646C161.181 16.2646 162.503 16.6155 163.564 17.3173C164.644 18.019 165.48 19.0103 166.074 20.291L164.239 21.3699C163.861 20.4225 163.286 19.6682 162.512 19.1068C161.739 18.5278 160.767 18.2383 159.598 18.2383C158.789 18.2383 158.06 18.3875 157.413 18.6857C156.783 18.9839 156.243 19.4138 155.794 19.9752C155.362 20.519 155.029 21.1769 154.795 21.9489C154.561 22.7032 154.445 23.5541 154.445 24.5015V27.2383C154.445 29.1331 154.894 30.6155 155.794 31.6857C156.693 32.7559 157.961 33.291 159.598 33.291C160.803 33.291 161.811 32.9927 162.62 32.3962C163.429 31.7822 164.023 30.9752 164.401 29.9752L166.209 31.0804C165.615 32.3787 164.761 33.405 163.645 34.1594C162.53 34.8962 161.181 35.2646 159.598 35.2646Z" fill="#F7F7F7"/>
<path d="M169.719 34.9489V16.5804H181.213V18.5278H171.985V24.6857H180.673V26.6331H171.985V33.0015H181.213V34.9489H169.719Z" fill="#F7F7F7"/>
<path d="M190.009 23.7383L187.743 19.6594H187.662V34.9489H185.449V16.5804H188.067L194.947 27.791L197.214 31.8699H197.294V16.5804H199.507V34.9489H196.89L190.009 23.7383Z" fill="#F7F7F7"/>
<path d="M210.867 18.5278V34.9489H208.601V18.5278H202.611V16.5804H216.857V18.5278H210.867Z" fill="#F7F7F7"/>
<path d="M219.967 34.9489V16.5804H231.462V18.5278H222.234V24.6857H230.922V26.6331H222.234V33.0015H231.462V34.9489H219.967Z" fill="#F7F7F7"/>
<path d="M237.964 34.9489H235.698V16.5804H243.199C244.854 16.5804 246.14 17.0278 247.057 17.9225C247.993 18.8173 248.46 20.1068 248.46 21.791C248.46 23.1418 248.137 24.2559 247.489 25.1331C246.859 25.9927 245.924 26.5629 244.683 26.8436L249 34.9489H246.437L242.362 27.0541H237.964V34.9489ZM243.199 25.1594C244.098 25.1594 244.791 24.9313 245.277 24.4752C245.78 24.019 246.032 23.3699 246.032 22.5278V21.1594C246.032 20.3173 245.78 19.6682 245.277 19.212C244.791 18.7559 244.098 18.5278 243.199 18.5278H237.964V25.1594H243.199Z" fill="#F7F7F7"/>
</g>
</g>
</svg>
