<svg width="351" height="491" viewBox="0 0 351 491" fill="none" xmlns="http://www.w3.org/2000/svg">
<path d="M75.7701 332.41C75.7701 334.82 75.4601 336.99 74.8301 338.93C74.2401 340.84 73.4401 342.52 72.4401 343.99C71.4401 345.46 70.2701 346.71 68.9201 347.74C67.5801 348.77 66.1901 349.62 64.7501 350.27C63.3101 350.93 61.8401 351.41 60.3401 351.72C58.8701 352.03 57.4801 352.19 56.1701 352.19H9.16005V340H56.1801C58.5201 340 60.3401 339.31 61.6201 337.94C62.9301 336.56 63.5901 334.72 63.5901 332.41C63.5901 331.29 63.4201 330.25 63.0701 329.32C62.7301 328.38 62.2301 327.57 61.5701 326.88C60.9501 326.19 60.1601 325.66 59.2301 325.29C58.3201 324.91 57.3101 324.73 56.1801 324.73H28.1401C26.1701 324.73 24.0501 324.39 21.7601 323.7C19.4801 322.98 17.3501 321.84 15.3801 320.28C13.4401 318.72 11.8201 316.67 10.5001 314.14C9.22005 311.61 8.58005 308.52 8.58005 304.86C8.58005 301.2 9.22005 298.12 10.5001 295.62C11.8101 293.09 13.4401 291.04 15.3801 289.48C17.3501 287.89 19.4701 286.74 21.7601 286.06C24.0401 285.34 26.1701 284.98 28.1401 284.98H69.6201V297.17H28.1401C25.8301 297.17 24.0201 297.87 22.7001 299.28C21.4201 300.69 20.7801 302.54 20.7801 304.86C20.7801 307.2 21.4201 309.06 22.7001 310.44C24.0101 311.78 25.8201 312.46 28.1401 312.46H56.1701H56.2601C57.5701 312.49 58.9601 312.68 60.4301 313.02C61.9001 313.33 63.3501 313.83 64.7901 314.52C66.2601 315.21 67.6501 316.08 68.9601 317.14C70.2701 318.17 71.4301 319.42 72.4301 320.89C73.4601 322.36 74.2701 324.05 74.8701 325.95C75.4701 327.84 75.7701 330 75.7701 332.41ZM136.57 335.08C136.57 337.17 136.3 339.07 135.77 340.75C135.24 342.41 134.53 343.87 133.66 345.16C132.78 346.41 131.77 347.49 130.61 348.4C129.45 349.28 128.23 349.99 126.95 350.56C125.7 351.12 124.44 351.54 123.15 351.83C121.87 352.08 120.65 352.21 119.49 352.21H97.5201V340H119.5C121.12 340 122.34 339.58 123.16 338.73C123.97 337.89 124.38 336.67 124.38 335.07V318.66C124.38 316.97 123.96 315.72 123.11 314.91C122.3 314.1 121.1 313.69 119.5 313.69H97.6201C95.9601 313.69 94.7101 314.11 93.8701 314.96C93.0301 315.77 92.6001 316.97 92.6001 318.57V368.02H80.4101V318.57C80.4101 316.48 80.6801 314.6 81.2101 312.95C81.7401 311.29 82.4401 309.84 83.3201 308.59C84.2301 307.31 85.2601 306.23 86.4101 305.35C87.5701 304.44 88.7701 303.71 90.0201 303.15C91.3 302.59 92.5801 302.18 93.8601 301.93C95.1701 301.65 96.3901 301.51 97.5201 301.51H119.5C121.59 301.51 123.47 301.77 125.12 302.31C126.78 302.84 128.23 303.54 129.48 304.42C130.76 305.3 131.84 306.31 132.72 307.47C133.63 308.63 134.36 309.85 134.92 311.13C135.48 312.38 135.89 313.65 136.14 314.93C136.42 316.21 136.56 317.43 136.56 318.59V335.08H136.57ZM195.45 335.41C195.45 337.1 195.15 338.93 194.56 340.9C193.97 342.84 193 344.65 191.65 346.34C190.34 348 188.6 349.39 186.45 350.51C184.33 351.63 181.73 352.2 178.67 352.2H156.69C155 352.2 153.17 351.9 151.2 351.31C149.26 350.72 147.45 349.76 145.76 348.45C144.1 347.11 142.71 345.37 141.59 343.25C140.47 341.09 139.9 338.49 139.9 335.42C139.9 333.73 140.2 331.91 140.79 329.94C141.38 327.97 142.34 326.16 143.65 324.5C144.99 322.81 146.73 321.41 148.85 320.28C151.01 319.16 153.61 318.59 156.68 318.59H178.66V330.21H156.68C155.02 330.21 153.74 330.73 152.84 331.76C151.93 332.76 151.48 334.01 151.48 335.51C151.48 337.1 151.99 338.35 153.03 339.26C154.09 340.14 155.34 340.57 156.78 340.57H178.67C180.33 340.57 181.61 340.07 182.51 339.07C183.41 338.07 183.87 336.82 183.87 335.32V318.3C183.87 316.71 183.37 315.44 182.37 314.5C181.4 313.56 180.17 313.09 178.67 313.09H151.9V301.51H178.67C180.36 301.51 182.17 301.81 184.11 302.4C186.08 302.99 187.89 303.96 189.55 305.31C191.24 306.62 192.64 308.36 193.77 310.51C194.89 312.63 195.46 315.23 195.46 318.29V335.41H195.45ZM255.93 352.19H222.88C221.19 352.19 219.35 351.89 217.35 351.3C215.35 350.71 213.49 349.74 211.77 348.39C210.08 347.01 208.66 345.25 207.51 343.09C206.39 340.9 205.82 338.23 205.82 335.07V318.57C205.82 317.41 205.94 316.19 206.2 314.91C206.48 313.63 206.9 312.36 207.47 311.11C208.03 309.83 208.75 308.61 209.63 307.45C210.54 306.29 211.62 305.28 212.87 304.4C214.15 303.52 215.62 302.82 217.28 302.29C218.94 301.76 220.81 301.49 222.9 301.49H255.95V313.68H222.9C221.31 313.68 220.09 314.09 219.24 314.9C218.43 315.71 218.02 316.96 218.02 318.65V335.06C218.02 336.65 218.44 337.87 219.28 338.72C220.12 339.56 221.36 339.99 222.98 339.99H255.93V352.19ZM311.47 318.3C311.47 319.99 311.17 321.82 310.58 323.78C309.99 325.72 309.02 327.53 307.67 329.22C306.36 330.88 304.62 332.27 302.47 333.39C300.35 334.51 297.75 335.08 294.69 335.08H272.71V323.5H294.69C296.35 323.5 297.63 323 298.53 322C299.44 320.97 299.89 319.7 299.89 318.2C299.89 316.61 299.38 315.36 298.34 314.45C297.34 313.54 296.12 313.09 294.68 313.09H272.7C271.04 313.09 269.76 313.6 268.86 314.64C267.95 315.64 267.5 316.89 267.5 318.39V335.4C267.5 337.02 268 338.29 269 339.2C270.03 340.11 271.3 340.56 272.8 340.56H294.69V352.18H272.71C271.02 352.18 269.19 351.88 267.22 351.29C265.28 350.7 263.47 349.74 261.78 348.43C260.12 347.09 258.73 345.35 257.61 343.23C256.49 341.07 255.92 338.47 255.92 335.4V318.3C255.92 316.61 256.22 314.8 256.81 312.86C257.4 310.89 258.36 309.08 259.67 307.42C261.01 305.73 262.75 304.33 264.87 303.2C267.03 302.08 269.63 301.51 272.7 301.51H294.68C296.37 301.51 298.18 301.81 300.12 302.4C302.09 302.99 303.9 303.96 305.56 305.31C307.25 306.62 308.65 308.36 309.78 310.51C310.91 312.64 311.47 315.23 311.47 318.3ZM65.5001 485.19H21.5401C20.4201 485.19 19.2001 485.07 17.8801 484.81C16.6001 484.53 15.3201 484.11 14.0401 483.54C12.7901 482.98 11.5901 482.26 10.4301 481.38C9.27005 480.47 8.24005 479.39 7.34005 478.14C6.46005 476.86 5.76005 475.39 5.23005 473.73C4.70005 472.04 4.43005 470.15 4.43005 468.06V435.06C4.43005 433.94 4.55005 432.73 4.81005 431.45C5.09005 430.14 5.51005 428.86 6.08005 427.61C6.64005 426.33 7.38005 425.11 8.28005 423.95C9.19005 422.79 10.2601 421.78 11.5101 420.9C12.7901 419.99 14.2601 419.28 15.9201 418.74C17.5801 418.21 19.4501 417.94 21.5401 417.94H65.5001V430.13H21.5401C19.9501 430.13 18.7301 430.55 17.8801 431.4C17.0401 432.24 16.6101 433.49 16.6101 435.15V468.06C16.6101 469.62 17.0301 470.84 17.8801 471.72C18.7601 472.56 19.9701 472.99 21.5401 472.99H65.5001V485.19ZM125.7 451.3C125.7 452.99 125.4 454.82 124.81 456.78C124.22 458.72 123.25 460.53 121.9 462.22C120.59 463.88 118.85 465.27 116.7 466.39C114.58 467.51 111.98 468.08 108.92 468.08H86.9301V456.5H108.91C110.57 456.5 111.85 456 112.75 455C113.66 453.97 114.11 452.7 114.11 451.2C114.11 449.61 113.6 448.36 112.56 447.45C111.56 446.54 110.34 446.09 108.9 446.09H86.9301C85.2701 446.09 83.9901 446.6 83.09 447.64C82.18 448.64 81.7301 449.89 81.7301 451.39V468.4C81.7301 470.02 82.2301 471.29 83.2301 472.2C84.2601 473.11 85.5301 473.56 87.0301 473.56H108.92V485.18H86.9301C85.2401 485.18 83.41 484.88 81.4501 484.29C79.51 483.7 77.7001 482.74 76.0101 481.43C74.3501 480.09 72.9601 478.35 71.84 476.23C70.72 474.07 70.1501 471.47 70.1501 468.4V451.3C70.1501 449.61 70.4501 447.8 71.0401 445.86C71.6301 443.89 72.5901 442.08 73.9001 440.42C75.2401 438.73 76.98 437.33 79.1001 436.2C81.2601 435.08 83.8701 434.51 86.9301 434.51H108.91C110.6 434.51 112.41 434.81 114.35 435.4C116.32 435.99 118.13 436.96 119.79 438.31C121.48 439.62 122.88 441.36 124.01 443.51C125.13 445.64 125.7 448.23 125.7 451.3ZM186.21 485.19H174.02V457.07C174.02 455.48 173.74 454.05 173.18 452.8C172.65 451.52 171.91 450.42 170.98 449.52C170.04 448.61 168.93 447.93 167.65 447.46C166.4 446.96 165.04 446.71 163.57 446.71H142.24V485.2H130.05V440.58C130.05 439.74 130.21 438.96 130.52 438.24C130.83 437.49 131.27 436.85 131.83 436.32C132.39 435.76 133.05 435.32 133.8 435.01C134.55 434.7 135.35 434.54 136.19 434.54H163.66C165.19 434.54 166.8 434.71 168.49 435.05C170.21 435.39 171.9 435.96 173.55 436.74C175.24 437.49 176.83 438.46 178.33 439.65C179.86 440.81 181.21 442.23 182.36 443.92C183.55 445.58 184.48 447.5 185.17 449.68C185.86 451.87 186.2 454.34 186.2 457.09V485.19H186.21ZM237.64 446.7H216.36V485.19H204.03V446.7H188.19V434.51H204.03V417.96H216.36V434.51H237.64V446.7ZM296.14 451.3C296.14 452.99 295.84 454.82 295.25 456.78C294.66 458.72 293.69 460.53 292.34 462.22C291.03 463.88 289.29 465.27 287.14 466.39C285.02 467.51 282.42 468.08 279.36 468.08H257.38V456.5H279.36C281.02 456.5 282.3 456 283.2 455C284.11 453.97 284.56 452.7 284.56 451.2C284.56 449.61 284.05 448.36 283.01 447.45C282.01 446.54 280.79 446.09 279.35 446.09H257.37C255.71 446.09 254.43 446.6 253.53 447.64C252.62 448.64 252.17 449.89 252.17 451.39V468.4C252.17 470.02 252.67 471.29 253.67 472.2C254.7 473.11 255.97 473.56 257.47 473.56H279.36V485.18H257.38C255.69 485.18 253.86 484.88 251.89 484.29C249.95 483.7 248.14 482.74 246.45 481.43C244.79 480.09 243.4 478.35 242.28 476.23C241.16 474.07 240.59 471.47 240.59 468.4V451.3C240.59 449.61 240.89 447.8 241.48 445.86C242.07 443.89 243.03 442.08 244.34 440.42C245.68 438.73 247.42 437.33 249.54 436.2C251.7 435.08 254.3 434.51 257.37 434.51H279.35C281.04 434.51 282.85 434.81 284.79 435.4C286.76 435.99 288.57 436.96 290.23 438.31C291.92 439.62 293.32 441.36 294.45 443.51C295.58 445.64 296.14 448.23 296.14 451.3ZM344.85 446.7H317.43C315.77 446.7 314.52 447.12 313.68 447.97C312.84 448.78 312.42 449.98 312.42 451.58V485.19H300.23V451.58C300.23 449.49 300.5 447.61 301.03 445.96C301.56 444.3 302.26 442.85 303.14 441.6C304.05 440.32 305.08 439.24 306.23 438.36C307.39 437.45 308.59 436.72 309.84 436.16C311.12 435.6 312.4 435.19 313.68 434.94C314.99 434.66 316.21 434.52 317.34 434.52H344.85V446.7Z" fill="white"/>
<mask id="mask0_82_1007" style="mask-type:luminance" maskUnits="userSpaceOnUse" x="16" y="2" width="312" height="231">
<path d="M327.83 2.98H16.3V232.52H327.83V2.98Z" fill="white"/>
</mask>
<g mask="url(#mask0_82_1007)">
<path d="M186.35 4.81999C201.7 10.28 215.39 17.51 226.44 25.98C237.88 34.73 246.62 44.87 252.14 55.67C257.87 66.9 260.18 78.92 258.83 90.78C257.46 103.16 252.11 115.32 243.43 126.34C248.64 114.13 250.07 101.77 247.99 90.21C246.02 79.07 240.86 68.65 233.26 59.56C225.89 50.76 216.25 43.17 205.2 37.19C194.41 31.32 182.2 26.96 169.49 24.14C159.43 21.92 154.45 15.46 158.24 9.82999C161.95 4.31999 172.68 1.62999 182.38 3.69999C183.6 3.95999 184.71 4.26999 185.78 4.64999L186.32 4.83999L186.35 4.81999Z" fill="white"/>
<path d="M27.46 62.63C44.45 55.05 62.78 49.51 81.11 46.32C99.18 43.15 117.52 42.17 134.92 43.22C152.37 44.29 169.18 47.44 184.27 52.35C199.65 57.33 213.42 64.23 224.8 72.43C211.11 65.7 195.99 60.81 180.53 57.98C165.2 55.14 149.36 54.26 134.06 55.21C118.66 56.19 103.64 59 90 63.39C76.1 67.85 63.5 73.98 52.84 81.28C44.13 87.24 30.12 88.27 21.88 83.47C13.76 78.77 14.54 70.35 23.36 64.72C24.45 64.03 25.59 63.41 26.78 62.88L27.4 62.59L27.46 62.63Z" fill="white"/>
<path d="M327.73 93.52C326.33 106.57 320.68 119.35 311.11 130.73C301.2 142.58 287.25 152.79 270.58 160.59C253.41 168.58 233.65 173.85 213.11 176.05C192.39 178.29 171.33 177.31 151.78 173.57C171.98 174.33 191.87 172.12 209.71 167.32C227.29 162.62 242.64 155.51 254.76 146.9C266.51 138.5 275.07 128.77 280.07 118.66C284.95 108.88 286.48 98.79 285.13 89.13C284.07 81.64 292.52 75.99 303.98 76.32C315.42 76.65 325.97 82.83 327.6 90.32C327.81 91.25 327.86 92.18 327.76 93.06L327.71 93.51H327.73V93.52Z" fill="white"/>
<path d="M260.98 232.07C235.95 233.62 210.54 231.14 187.18 224.99C164.15 218.95 143.61 209.53 127.04 197.94C111.01 186.68 98.93 173.56 91.38 159.83C84.12 146.66 81.11 133.05 81.91 120.14C84.97 132.64 91.92 144.68 102.16 155.3C112.74 166.25 126.69 175.55 142.67 182.44C158.98 189.48 177.11 193.91 195.34 195.51C213.62 197.13 231.67 195.87 248.09 192.17C261.06 189.26 275.76 195.15 281.23 205.57C286.86 216.33 280.63 227.94 267.02 231.23C265.34 231.63 263.6 231.9 261.86 232.02L260.95 232.07H260.98Z" fill="white"/>
<path d="M28.62 206.26C23.15 188.94 22.66 171.39 26.65 155.05C30.44 139.5 38.22 125.05 48.93 112.52C59.2 100.52 72.1899 90.22 86.77 82.13C100.9 74.26 116.64 68.39 132.77 64.65C118.02 70.3 104.87 77.79 94.26 86.57C83.26 95.63 74.86 106.1 69.55 117.22C64.05 128.79 61.87 141.02 63.14 152.97C64.44 165.4 69.44 177.44 77.56 188.27C84.22 197.17 79.4 209.64 66.36 216.03C53.06 222.54 36.85 220.04 30.57 210.52C29.79 209.35 29.22 208.16 28.83 206.92L28.62 206.28V206.26Z" fill="white"/>
<path d="M199.05 126.36C185.88 135.73 163.76 135.73 150.4 126.36C137.43 117.25 138.21 103.03 151.46 94.64C164.3 86.48 184.65 86.53 197.57 94.74C210.85 103.15 211.81 117.3 199.05 126.36Z" fill="white"/>
</g>
</svg>
