<svg width="90" height="72" viewBox="0 0 90 72" fill="none" xmlns="http://www.w3.org/2000/svg">
<g id="Group 1312">
<path id="Vector" d="M49.1364 1.06287C53.571 2.75244 57.5262 4.98799 60.7173 7.6072C64.0208 10.3149 66.5453 13.4506 68.1408 16.7929C69.7963 20.2679 70.463 23.9865 70.0735 27.6534C69.6765 31.4826 68.1333 35.2454 65.6239 38.654C67.1295 34.8765 67.5415 31.0546 66.9423 27.4763C66.373 24.0307 64.8823 20.8065 62.6874 17.9955C60.56 15.273 57.7734 12.9268 54.5823 11.0749C51.466 9.25988 47.9378 7.9097 44.2673 7.03909C41.3608 6.35293 39.9225 4.35348 41.0162 2.61226C42.0874 0.907929 45.1887 0.074209 47.9903 0.7161C48.3423 0.797258 48.6644 0.893173 48.9716 1.01122L49.1289 1.07025L49.1364 1.06287Z" fill="white"/>
<path id="Vector_2" d="M3.23952 18.947C8.14607 16.6008 13.4421 14.8891 18.7382 13.9005C23.9594 12.9192 29.2555 12.6167 34.2819 12.9413C39.3233 13.2733 44.1774 14.2472 48.5371 15.7671C52.9792 17.3091 56.9569 19.4414 60.2454 21.9794C56.2902 19.8988 51.923 18.3863 47.4584 17.5083C43.0313 16.6303 38.4543 16.3574 34.0347 16.6525C29.5851 16.955 25.2478 17.8256 21.3076 19.1831C17.2925 20.5628 13.6519 22.459 10.5731 24.7167C8.05618 26.5612 4.01109 26.8785 1.62898 25.3955C-0.715679 23.942 -0.490951 21.3375 2.05596 19.5963C2.37058 19.3824 2.70018 19.1905 3.04476 19.0282L3.22454 18.9397L3.23952 18.947Z" fill="white"/>
<path id="Vector_3" d="M89.9772 28.5017C89.5727 32.5375 87.9397 36.4921 85.1755 40.0114C82.314 43.6783 78.2839 46.8361 73.4672 49.2487C68.5083 51.7204 62.8002 53.3509 56.8674 54.0297C50.8821 54.7233 44.7995 54.4208 39.1514 53.2624C44.9868 53.4985 50.7323 52.8123 55.8861 51.3294C60.9649 49.8759 65.3995 47.6772 68.8978 45.0137C72.2912 42.4167 74.7632 39.4064 76.2089 36.2781C77.6172 33.2531 78.0592 30.1322 77.6696 27.1441C77.3625 24.8274 79.8046 23.0788 83.1155 23.1821C86.419 23.2854 89.4678 25.1963 89.9398 27.513C89.9997 27.8007 90.0147 28.0885 89.9847 28.3615L89.9697 28.5017H89.9772Z" fill="white"/>
<path id="Vector_4" d="M70.6959 71.3608C63.4672 71.8404 56.1261 71.073 49.3768 69.1695C42.7248 67.3029 36.792 64.3885 32.0053 60.8028C27.376 57.3204 23.8852 53.2624 21.7053 49.0127C19.6079 44.94 18.7389 40.7271 18.9712 36.7356C19.8551 40.6017 21.8626 44.3276 24.8216 47.6108C27.8778 50.9974 31.908 53.8748 36.5224 56.0071C41.2341 58.1836 46.4703 59.5559 51.7364 60.0502C57.0175 60.5519 62.2312 60.1609 66.9729 59.0173C70.7184 58.1172 74.9657 59.9396 76.5463 63.1638C78.1718 66.4913 76.374 70.0844 72.4413 71.1026C71.9544 71.228 71.4525 71.3091 70.9506 71.346L70.6884 71.3608H70.6959Z" fill="white"/>
<path id="Vector_5" d="M3.5764 63.378C1.99582 58.0215 1.85349 52.5912 3.00709 47.5373C4.10076 42.7268 6.34804 38.2557 9.44179 34.3822C12.4082 30.6711 16.1611 27.4837 20.371 24.9826C24.4536 22.5478 29.0006 20.7328 33.6599 19.5745C29.3976 21.3231 25.5997 23.6398 22.5359 26.3549C19.3598 29.1586 16.9327 32.3975 15.3971 35.8357C13.809 39.414 13.1798 43.199 13.5468 46.8954C13.9214 50.7394 15.3671 54.4653 17.7118 57.8149C19.6369 60.5669 18.2436 64.4256 14.4757 66.403C10.6328 68.4172 5.95102 67.6425 4.13822 64.6986C3.91349 64.3371 3.74869 63.9682 3.63633 63.5845L3.5764 63.3853V63.378Z" fill="white"/>
<path id="Vector_6" d="M52.8073 38.6614C49.002 41.561 42.6122 41.561 38.7544 38.6614C35.0089 35.843 35.2337 31.4457 39.0615 28.8486C42.7695 26.3253 48.6499 26.3401 52.3804 28.8781C56.2157 31.4826 56.4929 35.8578 52.8073 38.6614Z" fill="white"/>
</g>
</svg>
